<svg width="24" height="18" viewBox="0 0 24 18" fill="none" xmlns="http://www.w3.org/2000/svg">
<path d="M21.7514 12.5557C19.373 15.4216 15.8886 17.253 12 17.253C8.11136 17.253 4.63891 15.4335 2.24865 12.5557C0.583784 10.546 0.583784 7.45409 2.24865 5.44436C4.62702 2.57842 8.11136 0.74707 12 0.74707C15.8886 0.74707 19.3611 2.56652 21.7514 5.44436C23.4162 7.45409 23.4162 10.546 21.7514 12.5557Z" stroke="#A2A2A2" stroke-width="1.5" stroke-linecap="round" stroke-linejoin="round"/>
<path d="M12 12.6627C9.97717 12.6627 8.33734 11.0229 8.33734 9.00003C8.33734 6.97718 9.97717 5.33733 12 5.33733C14.0229 5.33733 15.6627 6.97718 15.6627 9.00003C15.6627 11.0229 14.0229 12.6627 12 12.6627Z" stroke="#A2A2A2" stroke-width="1.5" stroke-linecap="round" stroke-linejoin="round"/>
</svg>
