<svg width="24" height="24" viewBox="0 0 24 24" fill="none" xmlns="http://www.w3.org/2000/svg">
<path d="M21.6768 15.5282C19.3167 18.3722 15.859 20.1895 12.0002 20.1895C8.14134 20.1895 4.6955 18.384 2.32355 15.5282C0.671446 13.5339 0.671446 10.4657 2.32355 8.47135C4.6837 5.62737 8.14134 3.81006 12.0002 3.81006C15.859 3.81006 19.3049 5.61557 21.6768 8.47135C23.3289 10.4657 23.3289 13.5339 21.6768 15.5282Z" stroke="#00A779" stroke-width="1.5" stroke-linecap="round" stroke-linejoin="round"/>
<path d="M12.0002 15.6344C9.99285 15.6344 8.36559 14.0071 8.36559 11.9998C8.36559 9.99243 9.99285 8.36515 12.0002 8.36515C14.0076 8.36515 15.6348 9.99243 15.6348 11.9998C15.6348 14.0071 14.0076 15.6344 12.0002 15.6344Z" stroke="#00A779" stroke-width="1.5" stroke-linecap="round" stroke-linejoin="round"/>
<path fill-rule="evenodd" clip-rule="evenodd" d="M1.23739 1.95673C1.5571 1.63702 2.07546 1.63702 2.39518 1.95673L22.0435 21.605C22.3632 21.9247 22.3632 22.4431 22.0435 22.7628C21.7237 23.0825 21.2054 23.0825 20.8857 22.7628L1.23739 3.11452C0.917676 2.7948 0.917676 2.27645 1.23739 1.95673Z" fill="#00A779"/>
<path d="M3.55295 0.798946C2.59381 -0.160195 1.03873 -0.160195 0.0795898 0.798946L1.23739 1.95673C1.5571 1.63702 2.07546 1.63702 2.39518 1.95673L22.0423 21.6039L22.0435 21.605C22.3632 21.9247 22.3632 22.4431 22.0435 22.7628L23.2012 23.9206C24.1604 22.9614 24.1604 21.4064 23.2012 20.4472L3.55295 0.798946Z" fill="white"/>
</svg>
