<svg width="22" height="23" viewBox="0 0 22 23" fill="none" xmlns="http://www.w3.org/2000/svg">
<path d="M22 11.2852C22 10.5354 21.9296 9.80131 21.7889 9.08282C21.6326 8.36432 21.4176 7.67707 21.1439 7.02105C20.8703 6.36503 20.5302 5.74025 20.1237 5.14672C19.7328 4.55318 19.2871 4.0065 18.7868 3.50667C18.2864 3.02247 17.7392 2.57732 17.145 2.17121C16.5665 1.78072 15.9488 1.44491 15.2921 1.16376C14.6354 0.882605 13.9474 0.671743 13.2281 0.531168C12.5089 0.374973 11.7662 0.296875 11 0.296875C10.2338 0.296875 9.49112 0.374973 8.77186 0.531168C8.05259 0.671743 7.36461 0.882605 6.70789 1.16376C6.05117 1.44491 5.43355 1.78072 4.85501 2.17121C4.26084 2.57732 3.71358 3.02247 3.21322 3.50667C2.71286 4.0065 2.26724 4.55318 1.87633 5.14672C1.46979 5.74025 1.12971 6.36503 0.856077 7.02105C0.582445 7.67707 0.367448 8.36432 0.211087 9.08282C0.0703625 9.80131 0 10.5354 0 11.2852C0 12.0505 0.0703625 12.7924 0.211087 13.5109C0.367448 14.2294 0.582445 14.9167 0.856077 15.5727C1.12971 16.2287 1.46979 16.8535 1.87633 17.447C2.26724 18.025 2.71286 18.5638 3.21322 19.0636C3.71358 19.5635 4.26084 20.0086 4.85501 20.3991C5.43355 20.8052 6.05117 21.1488 6.70789 21.43C7.36461 21.7111 8.05259 21.922 8.77186 22.0626C9.49112 22.2188 10.2338 22.2969 11 22.2969C11.7662 22.2969 12.5089 22.2188 13.2281 22.0626C13.9474 21.922 14.6354 21.7111 15.2921 21.43C15.9488 21.1488 16.5665 20.8052 17.145 20.3991C17.7392 20.0086 18.2864 19.5635 18.7868 19.0636C19.2871 18.5638 19.7328 18.025 20.1237 17.447C20.5302 16.8535 20.8703 16.2287 21.1439 15.5727C21.4176 14.9167 21.6326 14.2294 21.7889 13.5109C21.9296 12.7924 22 12.0505 22 11.2852ZM20.0064 11.2852C20.0064 12.5347 19.7719 13.7062 19.3028 14.7995C18.8337 15.8929 18.1926 16.8457 17.3795 17.6579C16.5508 18.4701 15.5931 19.1105 14.5064 19.5791C13.4197 20.0477 12.2509 20.282 11 20.282C9.74911 20.282 8.58031 20.0477 7.4936 19.5791C6.40689 19.1105 5.44918 18.4701 4.62047 17.6579C3.80739 16.8457 3.16631 15.8929 2.69723 14.7995C2.22815 13.7062 1.9936 12.5347 1.9936 11.2852C1.9936 10.0512 2.22815 8.88758 2.69723 7.79421C3.16631 6.70085 3.80739 5.74806 4.62047 4.93585C5.44918 4.12364 6.40689 3.47934 7.4936 3.00294C8.58031 2.52655 9.74911 2.28835 11 2.28835C12.2509 2.28835 13.4197 2.52655 14.5064 3.00294C15.5931 3.47934 16.5508 4.12364 17.3795 4.93585C18.1926 5.74806 18.8337 6.70085 19.3028 7.79421C19.7719 8.88758 20.0064 10.0512 20.0064 11.2852ZM6.98934 12.2926H9.99147V15.2916C9.99147 15.5727 10.0892 15.8109 10.2846 16.0061C10.4801 16.2014 10.7186 16.299 11 16.299C11.2814 16.299 11.5199 16.2014 11.7154 16.0061C11.9108 15.8109 12.0085 15.5727 12.0085 15.2916V12.2926H15.0107C15.2765 12.2926 15.5071 12.195 15.7026 11.9998C15.898 11.8045 15.9957 11.5663 15.9957 11.2852C15.9957 11.0196 15.898 10.7892 15.7026 10.594C15.5071 10.3988 15.2765 10.3011 15.0107 10.3011H12.0085V7.3022C12.0085 7.02105 11.9108 6.78285 11.7154 6.58761C11.5199 6.39237 11.2814 6.29474 11 6.29474C10.7186 6.29474 10.4801 6.39237 10.2846 6.58761C10.0892 6.78285 9.99147 7.02105 9.99147 7.3022V10.3011H6.98934C6.72353 10.3011 6.49289 10.3988 6.29744 10.594C6.10199 10.7892 6.00426 11.0196 6.00426 11.2852C6.00426 11.5663 6.10199 11.8045 6.29744 11.9998C6.49289 12.195 6.72353 12.2926 6.98934 12.2926Z" fill="#FF2222"/>
</svg>
